<?xml version="1.0" encoding="utf-8" standalone="no"?>
<!DOCTYPE svg PUBLIC "-//W3C//DTD SVG 1.1//EN"
  "http://www.w3.org/Graphics/SVG/1.1/DTD/svg11.dtd">
<!-- Created with matplotlib (http://matplotlib.org/) -->
<svg height="1198pt" version="1.1" viewBox="0 0 1058 1198" width="1058pt" xmlns="http://www.w3.org/2000/svg" xmlns:xlink="http://www.w3.org/1999/xlink">
 <defs>
  <style type="text/css">
*{stroke-linecap:butt;stroke-linejoin:round;}
  </style>
 </defs>
 <g id="figure_1">
  <g id="patch_1">
   <path d="
M0 1198.8
L1058.4 1198.8
L1058.4 0
L0 0
z
" style="fill:#ffffff;"/>
  </g>
  <g id="axes_1">
   <g id="patch_2">
    <path d="
M132.3 1078.92
L952.56 1078.92
L952.56 119.88
L132.3 119.88
z
" style="fill:#ffffff;"/>
   </g>
   <g id="patch_3">
    <path clip-path="url(#pd69634e04a)" d="
M147.777 1078.92
L194.206 1078.92
L194.206 479.52
L147.777 479.52
z
" style="fill:#ffffff;stroke:#000000;"/>
   </g>
   <g id="patch_4">
    <path clip-path="url(#pd69634e04a)" d="
M209.683 1078.92
L256.113 1078.92
L256.113 899.1
L209.683 899.1
z
" style="fill:#ffffff;stroke:#000000;"/>
   </g>
   <g id="patch_5">
    <path clip-path="url(#pd69634e04a)" d="
M271.589 1078.92
L318.019 1078.92
L318.019 959.04
L271.589 959.04
z
" style="fill:#ffffff;stroke:#000000;"/>
   </g>
   <g id="patch_6">
    <path clip-path="url(#pd69634e04a)" d="
M333.496 1078.92
L379.926 1078.92
L379.926 959.04
L333.496 959.04
z
" style="fill:#ffffff;stroke:#000000;"/>
   </g>
   <g id="patch_7">
    <path clip-path="url(#pd69634e04a)" d="
M395.402 1078.92
L441.832 1078.92
L441.832 959.04
L395.402 959.04
z
" style="fill:#ffffff;stroke:#000000;"/>
   </g>
   <g id="patch_8">
    <path clip-path="url(#pd69634e04a)" d="
M457.309 1078.92
L503.738 1078.92
L503.738 959.04
L457.309 959.04
z
" style="fill:#ffffff;stroke:#000000;"/>
   </g>
   <g id="patch_9">
    <path clip-path="url(#pd69634e04a)" d="
M519.215 1078.92
L565.645 1078.92
L565.645 959.04
L519.215 959.04
z
" style="fill:#ffffff;stroke:#000000;"/>
   </g>
   <g id="patch_10">
    <path clip-path="url(#pd69634e04a)" d="
M581.122 1078.92
L627.551 1078.92
L627.551 959.04
L581.122 959.04
z
" style="fill:#ffffff;stroke:#000000;"/>
   </g>
   <g id="patch_11">
    <path clip-path="url(#pd69634e04a)" d="
M643.028 1078.92
L689.458 1078.92
L689.458 1018.98
L643.028 1018.98
z
" style="fill:#ffffff;stroke:#000000;"/>
   </g>
   <g id="patch_12">
    <path clip-path="url(#pd69634e04a)" d="
M704.934 1078.92
L751.364 1078.92
L751.364 1018.98
L704.934 1018.98
z
" style="fill:#ffffff;stroke:#000000;"/>
   </g>
   <g id="patch_13">
    <path clip-path="url(#pd69634e04a)" d="
M766.841 1078.92
L813.271 1078.92
L813.271 1018.98
L766.841 1018.98
z
" style="fill:#ffffff;stroke:#000000;"/>
   </g>
   <g id="patch_14">
    <path clip-path="url(#pd69634e04a)" d="
M828.747 1078.92
L875.177 1078.92
L875.177 1018.98
L828.747 1018.98
z
" style="fill:#ffffff;stroke:#000000;"/>
   </g>
   <g id="patch_15">
    <path clip-path="url(#pd69634e04a)" d="
M890.654 1078.92
L937.083 1078.92
L937.083 1018.98
L890.654 1018.98
z
" style="fill:#ffffff;stroke:#000000;"/>
   </g>
   <g id="patch_16">
    <path clip-path="url(#pd69634e04a)" d="
M952.56 1078.92
L998.99 1078.92
L998.99 1018.98
L952.56 1018.98
z
" style="fill:#ffffff;stroke:#000000;"/>
   </g>
   <g id="patch_17">
    <path clip-path="url(#pd69634e04a)" d="
M1014.47 1078.92
L1060.9 1078.92
L1060.9 1018.98
L1014.47 1018.98
z
" style="fill:#ffffff;stroke:#000000;"/>
   </g>
   <g id="patch_18">
    <path clip-path="url(#pd69634e04a)" d="
M1076.37 1078.92
L1122.8 1078.92
L1122.8 1018.98
L1076.37 1018.98
z
" style="fill:#ffffff;stroke:#000000;"/>
   </g>
   <g id="patch_19">
    <path clip-path="url(#pd69634e04a)" d="
M1138.28 1078.92
L1184.71 1078.92
L1184.71 1018.98
L1138.28 1018.98
z
" style="fill:#ffffff;stroke:#000000;"/>
   </g>
   <g id="patch_20">
    <path clip-path="url(#pd69634e04a)" d="
M1200.19 1078.92
L1246.62 1078.92
L1246.62 1018.98
L1200.19 1018.98
z
" style="fill:#ffffff;stroke:#000000;"/>
   </g>
   <g id="patch_21">
    <path clip-path="url(#pd69634e04a)" d="
M1262.09 1078.92
L1308.52 1078.92
L1308.52 1018.98
L1262.09 1018.98
z
" style="fill:#ffffff;stroke:#000000;"/>
   </g>
   <g id="patch_22">
    <path clip-path="url(#pd69634e04a)" d="
M1324 1078.92
L1370.43 1078.92
L1370.43 1018.98
L1324 1018.98
z
" style="fill:#ffffff;stroke:#000000;"/>
   </g>
   <g id="patch_23">
    <path clip-path="url(#pd69634e04a)" d="
M1385.9 1078.92
L1432.33 1078.92
L1432.33 1018.98
L1385.9 1018.98
z
" style="fill:#ffffff;stroke:#000000;"/>
   </g>
   <g id="patch_24">
    <path clip-path="url(#pd69634e04a)" d="
M1447.81 1078.92
L1494.24 1078.92
L1494.24 1018.98
L1447.81 1018.98
z
" style="fill:#ffffff;stroke:#000000;"/>
   </g>
   <g id="patch_25">
    <path clip-path="url(#pd69634e04a)" d="
M1509.72 1078.92
L1556.15 1078.92
L1556.15 1018.98
L1509.72 1018.98
z
" style="fill:#ffffff;stroke:#000000;"/>
   </g>
   <g id="patch_26">
    <path clip-path="url(#pd69634e04a)" d="
M147.777 1078.92
L194.206 1078.92
L194.206 119.88
L147.777 119.88
z
" style="fill:#ffffff;stroke:#000000;"/>
   </g>
   <g id="patch_27">
    <path clip-path="url(#pd69634e04a)" d="
M209.683 1078.92
L256.113 1078.92
L256.113 239.76
L209.683 239.76
z
" style="fill:#ffffff;stroke:#000000;"/>
   </g>
   <g id="patch_28">
    <path clip-path="url(#pd69634e04a)" d="
M271.589 1078.92
L318.019 1078.92
L318.019 659.34
L271.589 659.34
z
" style="fill:#ffffff;stroke:#000000;"/>
   </g>
   <g id="patch_29">
    <path clip-path="url(#pd69634e04a)" d="
M333.496 1078.92
L379.926 1078.92
L379.926 719.28
L333.496 719.28
z
" style="fill:#ffffff;stroke:#000000;"/>
   </g>
   <g id="patch_30">
    <path clip-path="url(#pd69634e04a)" d="
M395.402 1078.92
L441.832 1078.92
L441.832 779.22
L395.402 779.22
z
" style="fill:#ffffff;stroke:#000000;"/>
   </g>
   <g id="patch_31">
    <path clip-path="url(#pd69634e04a)" d="
M457.309 1078.92
L503.738 1078.92
L503.738 899.1
L457.309 899.1
z
" style="fill:#ffffff;stroke:#000000;"/>
   </g>
   <g id="patch_32">
    <path clip-path="url(#pd69634e04a)" d="
M519.215 1078.92
L565.645 1078.92
L565.645 959.04
L519.215 959.04
z
" style="fill:#ffffff;stroke:#000000;"/>
   </g>
   <g id="patch_33">
    <path clip-path="url(#pd69634e04a)" d="
M581.122 1078.92
L627.551 1078.92
L627.551 959.04
L581.122 959.04
z
" style="fill:#ffffff;stroke:#000000;"/>
   </g>
   <g id="patch_34">
    <path clip-path="url(#pd69634e04a)" d="
M643.028 1078.92
L689.458 1078.92
L689.458 959.04
L643.028 959.04
z
" style="fill:#ffffff;stroke:#000000;"/>
   </g>
   <g id="patch_35">
    <path clip-path="url(#pd69634e04a)" d="
M704.934 1078.92
L751.364 1078.92
L751.364 1018.98
L704.934 1018.98
z
" style="fill:#ffffff;stroke:#000000;"/>
   </g>
   <g id="patch_36">
    <path clip-path="url(#pd69634e04a)" d="
M766.841 1078.92
L813.271 1078.92
L813.271 1018.98
L766.841 1018.98
z
" style="fill:#ffffff;stroke:#000000;"/>
   </g>
   <g id="patch_37">
    <path clip-path="url(#pd69634e04a)" d="
M828.747 1078.92
L875.177 1078.92
L875.177 1018.98
L828.747 1018.98
z
" style="fill:#ffffff;stroke:#000000;"/>
   </g>
   <g id="patch_38">
    <path clip-path="url(#pd69634e04a)" d="
M890.654 1078.92
L937.083 1078.92
L937.083 1018.98
L890.654 1018.98
z
" style="fill:#ffffff;stroke:#000000;"/>
   </g>
   <g id="line2d_1">
    <path clip-path="url(#pd69634e04a)" d="
M132.3 1078.92
L952.56 1078.92" style="fill:none;stroke:#000000;stroke-dasharray:6.000000,6.000000;stroke-dashoffset:0.0;"/>
   </g>
   <g id="line2d_2">
    <path clip-path="url(#pd69634e04a)" d="
M132.3 1078.92
L952.56 1078.92" style="fill:none;stroke:#000000;stroke-dasharray:6.000000,6.000000;stroke-dashoffset:0.0;"/>
   </g>
   <g id="matplotlib.axis_1">
    <g id="xtick_1">
     <g id="line2d_3">
      <path clip-path="url(#pd69634e04a)" d="
M170.992 1078.92
L170.992 119.88" style="fill:none;stroke:#000000;stroke-dasharray:1.000000,3.000000;stroke-dashoffset:0.0;stroke-width:0.5;"/>
     </g>
     <g id="line2d_4">
      <defs>
       <path d="
M0 0
L0 -4" id="m93b0483c22" style="stroke:#000000;stroke-width:0.5;"/>
      </defs>
      <g>
       <use style="stroke:#000000;stroke-width:0.5;" x="170.991509434" xlink:href="#m93b0483c22" y="1078.92"/>
      </g>
     </g>
     <g id="line2d_5">
      <defs>
       <path d="
M0 0
L0 4" id="m741efc42ff" style="stroke:#000000;stroke-width:0.5;"/>
      </defs>
      <g>
       <use style="stroke:#000000;stroke-width:0.5;" x="170.991509434" xlink:href="#m741efc42ff" y="119.88"/>
      </g>
     </g>
     <g id="text_1">
      <!-- Ecological Archives -->
      <defs>
       <path id="BitstreamVeraSans-Roman-20"/>
       <path d="
M41.1094 46.2969
Q39.5938 47.1719 37.8125 47.5781
Q36.0312 48 33.8906 48
Q26.2656 48 22.1875 43.0469
Q18.1094 38.0938 18.1094 28.8125
L18.1094 0
L9.07812 0
L9.07812 54.6875
L18.1094 54.6875
L18.1094 46.1875
Q20.9531 51.1719 25.4844 53.5781
Q30.0312 56 36.5312 56
Q37.4531 56 38.5781 55.875
Q39.7031 55.7656 41.0625 55.5156
z
" id="BitstreamVeraSans-Roman-72"/>
       <path d="
M30.6094 48.3906
Q23.3906 48.3906 19.1875 42.75
Q14.9844 37.1094 14.9844 27.2969
Q14.9844 17.4844 19.1562 11.8438
Q23.3438 6.20312 30.6094 6.20312
Q37.7969 6.20312 41.9844 11.8594
Q46.1875 17.5312 46.1875 27.2969
Q46.1875 37.0156 41.9844 42.7031
Q37.7969 48.3906 30.6094 48.3906
M30.6094 56
Q42.3281 56 49.0156 48.375
Q55.7188 40.7656 55.7188 27.2969
Q55.7188 13.875 49.0156 6.21875
Q42.3281 -1.42188 30.6094 -1.42188
Q18.8438 -1.42188 12.1719 6.21875
Q5.51562 13.875 5.51562 27.2969
Q5.51562 40.7656 12.1719 48.375
Q18.8438 56 30.6094 56" id="BitstreamVeraSans-Roman-6f"/>
       <path d="
M9.42188 75.9844
L18.4062 75.9844
L18.4062 0
L9.42188 0
z
" id="BitstreamVeraSans-Roman-6c"/>
       <path d="
M56.2031 29.5938
L56.2031 25.2031
L14.8906 25.2031
Q15.4844 15.9219 20.4844 11.0625
Q25.4844 6.20312 34.4219 6.20312
Q39.5938 6.20312 44.4531 7.46875
Q49.3125 8.73438 54.1094 11.2812
L54.1094 2.78125
Q49.2656 0.734375 44.1875 -0.34375
Q39.1094 -1.42188 33.8906 -1.42188
Q20.7969 -1.42188 13.1562 6.1875
Q5.51562 13.8125 5.51562 26.8125
Q5.51562 40.2344 12.7656 48.1094
Q20.0156 56 32.3281 56
Q43.3594 56 49.7812 48.8906
Q56.2031 41.7969 56.2031 29.5938
M47.2188 32.2344
Q47.125 39.5938 43.0938 43.9844
Q39.0625 48.3906 32.4219 48.3906
Q24.9062 48.3906 20.3906 44.1406
Q15.875 39.8906 15.1875 32.1719
z
" id="BitstreamVeraSans-Roman-65"/>
       <path d="
M9.8125 72.9062
L55.9062 72.9062
L55.9062 64.5938
L19.6719 64.5938
L19.6719 43.0156
L54.3906 43.0156
L54.3906 34.7188
L19.6719 34.7188
L19.6719 8.29688
L56.7812 8.29688
L56.7812 0
L9.8125 0
z
" id="BitstreamVeraSans-Roman-45"/>
       <path d="
M9.42188 54.6875
L18.4062 54.6875
L18.4062 0
L9.42188 0
z

M9.42188 75.9844
L18.4062 75.9844
L18.4062 64.5938
L9.42188 64.5938
z
" id="BitstreamVeraSans-Roman-69"/>
       <path d="
M54.8906 33.0156
L54.8906 0
L45.9062 0
L45.9062 32.7188
Q45.9062 40.4844 42.875 44.3281
Q39.8438 48.1875 33.7969 48.1875
Q26.5156 48.1875 22.3125 43.5469
Q18.1094 38.9219 18.1094 30.9062
L18.1094 0
L9.07812 0
L9.07812 75.9844
L18.1094 75.9844
L18.1094 46.1875
Q21.3438 51.125 25.7031 53.5625
Q30.0781 56 35.7969 56
Q45.2188 56 50.0469 50.1719
Q54.8906 44.3438 54.8906 33.0156" id="BitstreamVeraSans-Roman-68"/>
       <path d="
M34.1875 63.1875
L20.7969 26.9062
L47.6094 26.9062
z

M28.6094 72.9062
L39.7969 72.9062
L67.5781 0
L57.3281 0
L50.6875 18.7031
L17.8281 18.7031
L11.1875 0
L0.78125 0
z
" id="BitstreamVeraSans-Roman-41"/>
       <path d="
M2.98438 54.6875
L12.5 54.6875
L29.5938 8.79688
L46.6875 54.6875
L56.2031 54.6875
L35.6875 0
L23.4844 0
z
" id="BitstreamVeraSans-Roman-76"/>
       <path d="
M45.4062 27.9844
Q45.4062 37.75 41.375 43.1094
Q37.3594 48.4844 30.0781 48.4844
Q22.8594 48.4844 18.8281 43.1094
Q14.7969 37.75 14.7969 27.9844
Q14.7969 18.2656 18.8281 12.8906
Q22.8594 7.51562 30.0781 7.51562
Q37.3594 7.51562 41.375 12.8906
Q45.4062 18.2656 45.4062 27.9844
M54.3906 6.78125
Q54.3906 -7.17188 48.1875 -13.9844
Q42 -20.7969 29.2031 -20.7969
Q24.4688 -20.7969 20.2656 -20.0938
Q16.0625 -19.3906 12.1094 -17.9219
L12.1094 -9.1875
Q16.0625 -11.3281 19.9219 -12.3438
Q23.7812 -13.375 27.7812 -13.375
Q36.625 -13.375 41.0156 -8.76562
Q45.4062 -4.15625 45.4062 5.17188
L45.4062 9.625
Q42.625 4.78125 38.2812 2.39062
Q33.9375 0 27.875 0
Q17.8281 0 11.6719 7.65625
Q5.51562 15.3281 5.51562 27.9844
Q5.51562 40.6719 11.6719 48.3281
Q17.8281 56 27.875 56
Q33.9375 56 38.2812 53.6094
Q42.625 51.2188 45.4062 46.3906
L45.4062 54.6875
L54.3906 54.6875
z
" id="BitstreamVeraSans-Roman-67"/>
       <path d="
M34.2812 27.4844
Q23.3906 27.4844 19.1875 25
Q14.9844 22.5156 14.9844 16.5
Q14.9844 11.7188 18.1406 8.90625
Q21.2969 6.10938 26.7031 6.10938
Q34.1875 6.10938 38.7031 11.4062
Q43.2188 16.7031 43.2188 25.4844
L43.2188 27.4844
z

M52.2031 31.2031
L52.2031 0
L43.2188 0
L43.2188 8.29688
Q40.1406 3.32812 35.5469 0.953125
Q30.9531 -1.42188 24.3125 -1.42188
Q15.9219 -1.42188 10.9531 3.29688
Q6 8.01562 6 15.9219
Q6 25.1406 12.1719 29.8281
Q18.3594 34.5156 30.6094 34.5156
L43.2188 34.5156
L43.2188 35.4062
Q43.2188 41.6094 39.1406 45
Q35.0625 48.3906 27.6875 48.3906
Q23 48.3906 18.5469 47.2656
Q14.1094 46.1406 10.0156 43.8906
L10.0156 52.2031
Q14.9375 54.1094 19.5781 55.0469
Q24.2188 56 28.6094 56
Q40.4844 56 46.3438 49.8438
Q52.2031 43.7031 52.2031 31.2031" id="BitstreamVeraSans-Roman-61"/>
       <path d="
M44.2812 53.0781
L44.2812 44.5781
Q40.4844 46.5312 36.375 47.5
Q32.2812 48.4844 27.875 48.4844
Q21.1875 48.4844 17.8438 46.4375
Q14.5 44.3906 14.5 40.2812
Q14.5 37.1562 16.8906 35.375
Q19.2812 33.5938 26.5156 31.9844
L29.5938 31.2969
Q39.1562 29.25 43.1875 25.5156
Q47.2188 21.7812 47.2188 15.0938
Q47.2188 7.46875 41.1875 3.01562
Q35.1562 -1.42188 24.6094 -1.42188
Q20.2188 -1.42188 15.4531 -0.5625
Q10.6875 0.296875 5.42188 2
L5.42188 11.2812
Q10.4062 8.6875 15.2344 7.39062
Q20.0625 6.10938 24.8125 6.10938
Q31.1562 6.10938 34.5625 8.28125
Q37.9844 10.4531 37.9844 14.4062
Q37.9844 18.0625 35.5156 20.0156
Q33.0625 21.9688 24.7031 23.7812
L21.5781 24.5156
Q13.2344 26.2656 9.51562 29.9062
Q5.8125 33.5469 5.8125 39.8906
Q5.8125 47.6094 11.2812 51.7969
Q16.75 56 26.8125 56
Q31.7812 56 36.1719 55.2656
Q40.5781 54.5469 44.2812 53.0781" id="BitstreamVeraSans-Roman-73"/>
       <path d="
M48.7812 52.5938
L48.7812 44.1875
Q44.9688 46.2969 41.1406 47.3438
Q37.3125 48.3906 33.4062 48.3906
Q24.6562 48.3906 19.8125 42.8438
Q14.9844 37.3125 14.9844 27.2969
Q14.9844 17.2812 19.8125 11.7344
Q24.6562 6.20312 33.4062 6.20312
Q37.3125 6.20312 41.1406 7.25
Q44.9688 8.29688 48.7812 10.4062
L48.7812 2.09375
Q45.0156 0.34375 40.9844 -0.53125
Q36.9688 -1.42188 32.4219 -1.42188
Q20.0625 -1.42188 12.7812 6.34375
Q5.51562 14.1094 5.51562 27.2969
Q5.51562 40.6719 12.8594 48.3281
Q20.2188 56 33.0156 56
Q37.1562 56 41.1094 55.1406
Q45.0625 54.2969 48.7812 52.5938" id="BitstreamVeraSans-Roman-63"/>
      </defs>
      <g transform="translate(174.302759434 1197.731875)rotate(-90.0)scale(0.12 -0.12)">
       <use xlink:href="#BitstreamVeraSans-Roman-45"/>
       <use x="63.18359375" xlink:href="#BitstreamVeraSans-Roman-63"/>
       <use x="118.1640625" xlink:href="#BitstreamVeraSans-Roman-6f"/>
       <use x="179.345703125" xlink:href="#BitstreamVeraSans-Roman-6c"/>
       <use x="207.12890625" xlink:href="#BitstreamVeraSans-Roman-6f"/>
       <use x="268.310546875" xlink:href="#BitstreamVeraSans-Roman-67"/>
       <use x="331.787109375" xlink:href="#BitstreamVeraSans-Roman-69"/>
       <use x="359.5703125" xlink:href="#BitstreamVeraSans-Roman-63"/>
       <use x="414.55078125" xlink:href="#BitstreamVeraSans-Roman-61"/>
       <use x="475.830078125" xlink:href="#BitstreamVeraSans-Roman-6c"/>
       <use x="503.61328125" xlink:href="#BitstreamVeraSans-Roman-20"/>
       <use x="535.400390625" xlink:href="#BitstreamVeraSans-Roman-41"/>
       <use x="603.80859375" xlink:href="#BitstreamVeraSans-Roman-72"/>
       <use x="642.671875" xlink:href="#BitstreamVeraSans-Roman-63"/>
       <use x="697.65234375" xlink:href="#BitstreamVeraSans-Roman-68"/>
       <use x="761.03125" xlink:href="#BitstreamVeraSans-Roman-69"/>
       <use x="788.814453125" xlink:href="#BitstreamVeraSans-Roman-76"/>
       <use x="847.994140625" xlink:href="#BitstreamVeraSans-Roman-65"/>
       <use x="909.517578125" xlink:href="#BitstreamVeraSans-Roman-73"/>
      </g>
     </g>
    </g>
    <g id="xtick_2">
     <g id="line2d_6">
      <path clip-path="url(#pd69634e04a)" d="
M232.898 1078.92
L232.898 119.88" style="fill:none;stroke:#000000;stroke-dasharray:1.000000,3.000000;stroke-dashoffset:0.0;stroke-width:0.5;"/>
     </g>
     <g id="line2d_7">
      <g>
       <use style="stroke:#000000;stroke-width:0.5;" x="232.897924528" xlink:href="#m93b0483c22" y="1078.92"/>
      </g>
     </g>
     <g id="line2d_8">
      <g>
       <use style="stroke:#000000;stroke-width:0.5;" x="232.897924528" xlink:href="#m741efc42ff" y="119.88"/>
      </g>
     </g>
     <g id="text_2">
      <!-- Nature Scientific Data -->
      <defs>
       <path d="
M9.8125 72.9062
L23.0938 72.9062
L55.4219 11.9219
L55.4219 72.9062
L64.9844 72.9062
L64.9844 0
L51.7031 0
L19.3906 60.9844
L19.3906 0
L9.8125 0
z
" id="BitstreamVeraSans-Roman-4e"/>
       <path d="
M37.1094 75.9844
L37.1094 68.5
L28.5156 68.5
Q23.6875 68.5 21.7969 66.5469
Q19.9219 64.5938 19.9219 59.5156
L19.9219 54.6875
L34.7188 54.6875
L34.7188 47.7031
L19.9219 47.7031
L19.9219 0
L10.8906 0
L10.8906 47.7031
L2.29688 47.7031
L2.29688 54.6875
L10.8906 54.6875
L10.8906 58.5
Q10.8906 67.625 15.1406 71.7969
Q19.3906 75.9844 28.6094 75.9844
z
" id="BitstreamVeraSans-Roman-66"/>
       <path d="
M54.8906 33.0156
L54.8906 0
L45.9062 0
L45.9062 32.7188
Q45.9062 40.4844 42.875 44.3281
Q39.8438 48.1875 33.7969 48.1875
Q26.5156 48.1875 22.3125 43.5469
Q18.1094 38.9219 18.1094 30.9062
L18.1094 0
L9.07812 0
L9.07812 54.6875
L18.1094 54.6875
L18.1094 46.1875
Q21.3438 51.125 25.7031 53.5625
Q30.0781 56 35.7969 56
Q45.2188 56 50.0469 50.1719
Q54.8906 44.3438 54.8906 33.0156" id="BitstreamVeraSans-Roman-6e"/>
       <path d="
M19.6719 64.7969
L19.6719 8.10938
L31.5938 8.10938
Q46.6875 8.10938 53.6875 14.9375
Q60.6875 21.7812 60.6875 36.5312
Q60.6875 51.1719 53.6875 57.9844
Q46.6875 64.7969 31.5938 64.7969
z

M9.8125 72.9062
L30.0781 72.9062
Q51.2656 72.9062 61.1719 64.0938
Q71.0938 55.2812 71.0938 36.5312
Q71.0938 17.6719 61.125 8.82812
Q51.1719 0 30.0781 0
L9.8125 0
z
" id="BitstreamVeraSans-Roman-44"/>
       <path d="
M53.5156 70.5156
L53.5156 60.8906
Q47.9062 63.5781 42.9219 64.8906
Q37.9375 66.2188 33.2969 66.2188
Q25.25 66.2188 20.875 63.0938
Q16.5 59.9688 16.5 54.2031
Q16.5 49.3594 19.4062 46.8906
Q22.3125 44.4375 30.4219 42.9219
L36.375 41.7031
Q47.4062 39.5938 52.6562 34.2969
Q57.9062 29 57.9062 20.125
Q57.9062 9.51562 50.7969 4.04688
Q43.7031 -1.42188 29.9844 -1.42188
Q24.8125 -1.42188 18.9688 -0.25
Q13.1406 0.921875 6.89062 3.21875
L6.89062 13.375
Q12.8906 10.0156 18.6562 8.29688
Q24.4219 6.59375 29.9844 6.59375
Q38.4219 6.59375 43.0156 9.90625
Q47.6094 13.2344 47.6094 19.3906
Q47.6094 24.75 44.3125 27.7812
Q41.0156 30.8125 33.5 32.3281
L27.4844 33.5
Q16.4531 35.6875 11.5156 40.375
Q6.59375 45.0625 6.59375 53.4219
Q6.59375 63.0938 13.4062 68.6562
Q20.2188 74.2188 32.1719 74.2188
Q37.3125 74.2188 42.625 73.2812
Q47.9531 72.3594 53.5156 70.5156" id="BitstreamVeraSans-Roman-53"/>
       <path d="
M18.3125 70.2188
L18.3125 54.6875
L36.8125 54.6875
L36.8125 47.7031
L18.3125 47.7031
L18.3125 18.0156
Q18.3125 11.3281 20.1406 9.42188
Q21.9688 7.51562 27.5938 7.51562
L36.8125 7.51562
L36.8125 0
L27.5938 0
Q17.1875 0 13.2344 3.875
Q9.28125 7.76562 9.28125 18.0156
L9.28125 47.7031
L2.6875 47.7031
L2.6875 54.6875
L9.28125 54.6875
L9.28125 70.2188
z
" id="BitstreamVeraSans-Roman-74"/>
       <path d="
M8.5 21.5781
L8.5 54.6875
L17.4844 54.6875
L17.4844 21.9219
Q17.4844 14.1562 20.5 10.2656
Q23.5312 6.39062 29.5938 6.39062
Q36.8594 6.39062 41.0781 11.0312
Q45.3125 15.6719 45.3125 23.6875
L45.3125 54.6875
L54.2969 54.6875
L54.2969 0
L45.3125 0
L45.3125 8.40625
Q42.0469 3.42188 37.7188 1
Q33.4062 -1.42188 27.6875 -1.42188
Q18.2656 -1.42188 13.375 4.4375
Q8.5 10.2969 8.5 21.5781" id="BitstreamVeraSans-Roman-75"/>
      </defs>
      <g transform="translate(236.209174528 1213.530625)rotate(-90.0)scale(0.12 -0.12)">
       <use xlink:href="#BitstreamVeraSans-Roman-4e"/>
       <use x="74.8046875" xlink:href="#BitstreamVeraSans-Roman-61"/>
       <use x="136.083984375" xlink:href="#BitstreamVeraSans-Roman-74"/>
       <use x="175.29296875" xlink:href="#BitstreamVeraSans-Roman-75"/>
       <use x="238.671875" xlink:href="#BitstreamVeraSans-Roman-72"/>
       <use x="277.53515625" xlink:href="#BitstreamVeraSans-Roman-65"/>
       <use x="339.05859375" xlink:href="#BitstreamVeraSans-Roman-20"/>
       <use x="370.845703125" xlink:href="#BitstreamVeraSans-Roman-53"/>
       <use x="434.322265625" xlink:href="#BitstreamVeraSans-Roman-63"/>
       <use x="489.302734375" xlink:href="#BitstreamVeraSans-Roman-69"/>
       <use x="517.0859375" xlink:href="#BitstreamVeraSans-Roman-65"/>
       <use x="578.609375" xlink:href="#BitstreamVeraSans-Roman-6e"/>
       <use x="641.98828125" xlink:href="#BitstreamVeraSans-Roman-74"/>
       <use x="681.197265625" xlink:href="#BitstreamVeraSans-Roman-69"/>
       <use x="708.98046875" xlink:href="#BitstreamVeraSans-Roman-66"/>
       <use x="744.185546875" xlink:href="#BitstreamVeraSans-Roman-69"/>
       <use x="771.96875" xlink:href="#BitstreamVeraSans-Roman-63"/>
       <use x="826.94921875" xlink:href="#BitstreamVeraSans-Roman-20"/>
       <use x="858.736328125" xlink:href="#BitstreamVeraSans-Roman-44"/>
       <use x="935.73828125" xlink:href="#BitstreamVeraSans-Roman-61"/>
       <use x="997.017578125" xlink:href="#BitstreamVeraSans-Roman-74"/>
       <use x="1036.2265625" xlink:href="#BitstreamVeraSans-Roman-61"/>
      </g>
     </g>
    </g>
    <g id="xtick_3">
     <g id="line2d_9">
      <path clip-path="url(#pd69634e04a)" d="
M294.804 1078.92
L294.804 119.88" style="fill:none;stroke:#000000;stroke-dasharray:1.000000,3.000000;stroke-dashoffset:0.0;stroke-width:0.5;"/>
     </g>
     <g id="line2d_10">
      <g>
       <use style="stroke:#000000;stroke-width:0.5;" x="294.804339623" xlink:href="#m93b0483c22" y="1078.92"/>
      </g>
     </g>
     <g id="line2d_11">
      <g>
       <use style="stroke:#000000;stroke-width:0.5;" x="294.804339623" xlink:href="#m741efc42ff" y="119.88"/>
      </g>
     </g>
     <g id="text_3">
      <!-- Earth System Science Data -->
      <defs>
       <path d="
M52 44.1875
Q55.375 50.25 60.0625 53.125
Q64.75 56 71.0938 56
Q79.6406 56 84.2812 50.0156
Q88.9219 44.0469 88.9219 33.0156
L88.9219 0
L79.8906 0
L79.8906 32.7188
Q79.8906 40.5781 77.0938 44.375
Q74.3125 48.1875 68.6094 48.1875
Q61.625 48.1875 57.5625 43.5469
Q53.5156 38.9219 53.5156 30.9062
L53.5156 0
L44.4844 0
L44.4844 32.7188
Q44.4844 40.625 41.7031 44.4062
Q38.9219 48.1875 33.1094 48.1875
Q26.2188 48.1875 22.1562 43.5312
Q18.1094 38.875 18.1094 30.9062
L18.1094 0
L9.07812 0
L9.07812 54.6875
L18.1094 54.6875
L18.1094 46.1875
Q21.1875 51.2188 25.4844 53.6094
Q29.7812 56 35.6875 56
Q41.6562 56 45.8281 52.9688
Q50 49.9531 52 44.1875" id="BitstreamVeraSans-Roman-6d"/>
       <path d="
M32.1719 -5.07812
Q28.375 -14.8438 24.75 -17.8125
Q21.1406 -20.7969 15.0938 -20.7969
L7.90625 -20.7969
L7.90625 -13.2812
L13.1875 -13.2812
Q16.8906 -13.2812 18.9375 -11.5156
Q21 -9.76562 23.4844 -3.21875
L25.0938 0.875
L2.98438 54.6875
L12.5 54.6875
L29.5938 11.9219
L46.6875 54.6875
L56.2031 54.6875
z
" id="BitstreamVeraSans-Roman-79"/>
      </defs>
      <g transform="translate(298.115589623 1245.371875)rotate(-90.0)scale(0.12 -0.12)">
       <use xlink:href="#BitstreamVeraSans-Roman-45"/>
       <use x="63.18359375" xlink:href="#BitstreamVeraSans-Roman-61"/>
       <use x="124.462890625" xlink:href="#BitstreamVeraSans-Roman-72"/>
       <use x="165.576171875" xlink:href="#BitstreamVeraSans-Roman-74"/>
       <use x="204.78515625" xlink:href="#BitstreamVeraSans-Roman-68"/>
       <use x="268.1640625" xlink:href="#BitstreamVeraSans-Roman-20"/>
       <use x="299.951171875" xlink:href="#BitstreamVeraSans-Roman-53"/>
       <use x="363.427734375" xlink:href="#BitstreamVeraSans-Roman-79"/>
       <use x="422.607421875" xlink:href="#BitstreamVeraSans-Roman-73"/>
       <use x="474.70703125" xlink:href="#BitstreamVeraSans-Roman-74"/>
       <use x="513.916015625" xlink:href="#BitstreamVeraSans-Roman-65"/>
       <use x="575.439453125" xlink:href="#BitstreamVeraSans-Roman-6d"/>
       <use x="672.8515625" xlink:href="#BitstreamVeraSans-Roman-20"/>
       <use x="704.638671875" xlink:href="#BitstreamVeraSans-Roman-53"/>
       <use x="768.115234375" xlink:href="#BitstreamVeraSans-Roman-63"/>
       <use x="823.095703125" xlink:href="#BitstreamVeraSans-Roman-69"/>
       <use x="850.87890625" xlink:href="#BitstreamVeraSans-Roman-65"/>
       <use x="912.40234375" xlink:href="#BitstreamVeraSans-Roman-6e"/>
       <use x="975.78125" xlink:href="#BitstreamVeraSans-Roman-63"/>
       <use x="1030.76171875" xlink:href="#BitstreamVeraSans-Roman-65"/>
       <use x="1092.28515625" xlink:href="#BitstreamVeraSans-Roman-20"/>
       <use x="1124.07226562" xlink:href="#BitstreamVeraSans-Roman-44"/>
       <use x="1201.07421875" xlink:href="#BitstreamVeraSans-Roman-61"/>
       <use x="1262.35351562" xlink:href="#BitstreamVeraSans-Roman-74"/>
       <use x="1301.5625" xlink:href="#BitstreamVeraSans-Roman-61"/>
      </g>
     </g>
    </g>
    <g id="xtick_4">
     <g id="line2d_12">
      <path clip-path="url(#pd69634e04a)" d="
M356.711 1078.92
L356.711 119.88" style="fill:none;stroke:#000000;stroke-dasharray:1.000000,3.000000;stroke-dashoffset:0.0;stroke-width:0.5;"/>
     </g>
     <g id="line2d_13">
      <g>
       <use style="stroke:#000000;stroke-width:0.5;" x="356.710754717" xlink:href="#m93b0483c22" y="1078.92"/>
      </g>
     </g>
     <g id="line2d_14">
      <g>
       <use style="stroke:#000000;stroke-width:0.5;" x="356.710754717" xlink:href="#m741efc42ff" y="119.88"/>
      </g>
     </g>
     <g id="text_4">
      <!-- Biodiversity Data Journal -->
      <defs>
       <path d="
M45.4062 46.3906
L45.4062 75.9844
L54.3906 75.9844
L54.3906 0
L45.4062 0
L45.4062 8.20312
Q42.5781 3.32812 38.25 0.953125
Q33.9375 -1.42188 27.875 -1.42188
Q17.9688 -1.42188 11.7344 6.48438
Q5.51562 14.4062 5.51562 27.2969
Q5.51562 40.1875 11.7344 48.0938
Q17.9688 56 27.875 56
Q33.9375 56 38.25 53.625
Q42.5781 51.2656 45.4062 46.3906
M14.7969 27.2969
Q14.7969 17.3906 18.875 11.75
Q22.9531 6.10938 30.0781 6.10938
Q37.2031 6.10938 41.2969 11.75
Q45.4062 17.3906 45.4062 27.2969
Q45.4062 37.2031 41.2969 42.8438
Q37.2031 48.4844 30.0781 48.4844
Q22.9531 48.4844 18.875 42.8438
Q14.7969 37.2031 14.7969 27.2969" id="BitstreamVeraSans-Roman-64"/>
       <path d="
M19.6719 34.8125
L19.6719 8.10938
L35.5 8.10938
Q43.4531 8.10938 47.2812 11.4062
Q51.125 14.7031 51.125 21.4844
Q51.125 28.3281 47.2812 31.5625
Q43.4531 34.8125 35.5 34.8125
z

M19.6719 64.7969
L19.6719 42.8281
L34.2812 42.8281
Q41.5 42.8281 45.0312 45.5312
Q48.5781 48.25 48.5781 53.8125
Q48.5781 59.3281 45.0312 62.0625
Q41.5 64.7969 34.2812 64.7969
z

M9.8125 72.9062
L35.0156 72.9062
Q46.2969 72.9062 52.3906 68.2188
Q58.5 63.5312 58.5 54.8906
Q58.5 48.1875 55.375 44.2344
Q52.25 40.2812 46.1875 39.3125
Q53.4688 37.75 57.5 32.7812
Q61.5312 27.8281 61.5312 20.4062
Q61.5312 10.6406 54.8906 5.3125
Q48.25 0 35.9844 0
L9.8125 0
z
" id="BitstreamVeraSans-Roman-42"/>
       <path d="
M9.8125 72.9062
L19.6719 72.9062
L19.6719 5.07812
Q19.6719 -8.10938 14.6719 -14.0625
Q9.67188 -20.0156 -1.42188 -20.0156
L-5.17188 -20.0156
L-5.17188 -11.7188
L-2.09375 -11.7188
Q4.4375 -11.7188 7.125 -8.04688
Q9.8125 -4.39062 9.8125 5.07812
z
" id="BitstreamVeraSans-Roman-4a"/>
      </defs>
      <g transform="translate(360.022004717 1230.25)rotate(-90.0)scale(0.12 -0.12)">
       <use xlink:href="#BitstreamVeraSans-Roman-42"/>
       <use x="68.603515625" xlink:href="#BitstreamVeraSans-Roman-69"/>
       <use x="96.38671875" xlink:href="#BitstreamVeraSans-Roman-6f"/>
       <use x="157.568359375" xlink:href="#BitstreamVeraSans-Roman-64"/>
       <use x="221.044921875" xlink:href="#BitstreamVeraSans-Roman-69"/>
       <use x="248.828125" xlink:href="#BitstreamVeraSans-Roman-76"/>
       <use x="308.0078125" xlink:href="#BitstreamVeraSans-Roman-65"/>
       <use x="369.53125" xlink:href="#BitstreamVeraSans-Roman-72"/>
       <use x="410.64453125" xlink:href="#BitstreamVeraSans-Roman-73"/>
       <use x="462.744140625" xlink:href="#BitstreamVeraSans-Roman-69"/>
       <use x="490.52734375" xlink:href="#BitstreamVeraSans-Roman-74"/>
       <use x="529.736328125" xlink:href="#BitstreamVeraSans-Roman-79"/>
       <use x="588.916015625" xlink:href="#BitstreamVeraSans-Roman-20"/>
       <use x="620.703125" xlink:href="#BitstreamVeraSans-Roman-44"/>
       <use x="697.705078125" xlink:href="#BitstreamVeraSans-Roman-61"/>
       <use x="758.984375" xlink:href="#BitstreamVeraSans-Roman-74"/>
       <use x="798.193359375" xlink:href="#BitstreamVeraSans-Roman-61"/>
       <use x="859.47265625" xlink:href="#BitstreamVeraSans-Roman-20"/>
       <use x="891.259765625" xlink:href="#BitstreamVeraSans-Roman-4a"/>
       <use x="920.751953125" xlink:href="#BitstreamVeraSans-Roman-6f"/>
       <use x="981.93359375" xlink:href="#BitstreamVeraSans-Roman-75"/>
       <use x="1045.3125" xlink:href="#BitstreamVeraSans-Roman-72"/>
       <use x="1084.67578125" xlink:href="#BitstreamVeraSans-Roman-6e"/>
       <use x="1148.0546875" xlink:href="#BitstreamVeraSans-Roman-61"/>
       <use x="1209.33398438" xlink:href="#BitstreamVeraSans-Roman-6c"/>
      </g>
     </g>
    </g>
    <g id="xtick_5">
     <g id="line2d_15">
      <path clip-path="url(#pd69634e04a)" d="
M418.617 1078.92
L418.617 119.88" style="fill:none;stroke:#000000;stroke-dasharray:1.000000,3.000000;stroke-dashoffset:0.0;stroke-width:0.5;"/>
     </g>
     <g id="line2d_16">
      <g>
       <use style="stroke:#000000;stroke-width:0.5;" x="418.617169811" xlink:href="#m93b0483c22" y="1078.92"/>
      </g>
     </g>
     <g id="line2d_17">
      <g>
       <use style="stroke:#000000;stroke-width:0.5;" x="418.617169811" xlink:href="#m741efc42ff" y="119.88"/>
      </g>
     </g>
     <g id="text_5">
      <!-- Geoscience Data Journal -->
      <defs>
       <path d="
M59.5156 10.4062
L59.5156 29.9844
L43.4062 29.9844
L43.4062 38.0938
L69.2812 38.0938
L69.2812 6.78125
Q63.5781 2.73438 56.6875 0.65625
Q49.8125 -1.42188 42 -1.42188
Q24.9062 -1.42188 15.25 8.5625
Q5.60938 18.5625 5.60938 36.375
Q5.60938 54.25 15.25 64.2344
Q24.9062 74.2188 42 74.2188
Q49.125 74.2188 55.5469 72.4531
Q61.9688 70.7031 67.3906 67.2812
L67.3906 56.7812
Q61.9219 61.4219 55.7656 63.7656
Q49.6094 66.1094 42.8281 66.1094
Q29.4375 66.1094 22.7188 58.6406
Q16.0156 51.1719 16.0156 36.375
Q16.0156 21.625 22.7188 14.1562
Q29.4375 6.6875 42.8281 6.6875
Q48.0469 6.6875 52.1406 7.59375
Q56.25 8.5 59.5156 10.4062" id="BitstreamVeraSans-Roman-47"/>
      </defs>
      <g transform="translate(421.928419811 1228.755625)rotate(-90.0)scale(0.12 -0.12)">
       <use xlink:href="#BitstreamVeraSans-Roman-47"/>
       <use x="77.490234375" xlink:href="#BitstreamVeraSans-Roman-65"/>
       <use x="139.013671875" xlink:href="#BitstreamVeraSans-Roman-6f"/>
       <use x="200.1953125" xlink:href="#BitstreamVeraSans-Roman-73"/>
       <use x="252.294921875" xlink:href="#BitstreamVeraSans-Roman-63"/>
       <use x="307.275390625" xlink:href="#BitstreamVeraSans-Roman-69"/>
       <use x="335.05859375" xlink:href="#BitstreamVeraSans-Roman-65"/>
       <use x="396.58203125" xlink:href="#BitstreamVeraSans-Roman-6e"/>
       <use x="459.9609375" xlink:href="#BitstreamVeraSans-Roman-63"/>
       <use x="514.94140625" xlink:href="#BitstreamVeraSans-Roman-65"/>
       <use x="576.46484375" xlink:href="#BitstreamVeraSans-Roman-20"/>
       <use x="608.251953125" xlink:href="#BitstreamVeraSans-Roman-44"/>
       <use x="685.25390625" xlink:href="#BitstreamVeraSans-Roman-61"/>
       <use x="746.533203125" xlink:href="#BitstreamVeraSans-Roman-74"/>
       <use x="785.7421875" xlink:href="#BitstreamVeraSans-Roman-61"/>
       <use x="847.021484375" xlink:href="#BitstreamVeraSans-Roman-20"/>
       <use x="878.80859375" xlink:href="#BitstreamVeraSans-Roman-4a"/>
       <use x="908.30078125" xlink:href="#BitstreamVeraSans-Roman-6f"/>
       <use x="969.482421875" xlink:href="#BitstreamVeraSans-Roman-75"/>
       <use x="1032.86132812" xlink:href="#BitstreamVeraSans-Roman-72"/>
       <use x="1072.22460938" xlink:href="#BitstreamVeraSans-Roman-6e"/>
       <use x="1135.60351562" xlink:href="#BitstreamVeraSans-Roman-61"/>
       <use x="1196.8828125" xlink:href="#BitstreamVeraSans-Roman-6c"/>
      </g>
     </g>
    </g>
    <g id="xtick_6">
     <g id="line2d_18">
      <path clip-path="url(#pd69634e04a)" d="
M480.524 1078.92
L480.524 119.88" style="fill:none;stroke:#000000;stroke-dasharray:1.000000,3.000000;stroke-dashoffset:0.0;stroke-width:0.5;"/>
     </g>
     <g id="line2d_19">
      <g>
       <use style="stroke:#000000;stroke-width:0.5;" x="480.523584906" xlink:href="#m93b0483c22" y="1078.92"/>
      </g>
     </g>
     <g id="line2d_20">
      <g>
       <use style="stroke:#000000;stroke-width:0.5;" x="480.523584906" xlink:href="#m741efc42ff" y="119.88"/>
      </g>
     </g>
     <g id="text_6">
      <!-- Journal of Open Archaeology Data -->
      <defs>
       <path d="
M39.4062 66.2188
Q28.6562 66.2188 22.3281 58.2031
Q16.0156 50.2031 16.0156 36.375
Q16.0156 22.6094 22.3281 14.5938
Q28.6562 6.59375 39.4062 6.59375
Q50.1406 6.59375 56.4219 14.5938
Q62.7031 22.6094 62.7031 36.375
Q62.7031 50.2031 56.4219 58.2031
Q50.1406 66.2188 39.4062 66.2188
M39.4062 74.2188
Q54.7344 74.2188 63.9062 63.9375
Q73.0938 53.6562 73.0938 36.375
Q73.0938 19.1406 63.9062 8.85938
Q54.7344 -1.42188 39.4062 -1.42188
Q24.0312 -1.42188 14.8125 8.82812
Q5.60938 19.0938 5.60938 36.375
Q5.60938 53.6562 14.8125 63.9375
Q24.0312 74.2188 39.4062 74.2188" id="BitstreamVeraSans-Roman-4f"/>
       <path d="
M18.1094 8.20312
L18.1094 -20.7969
L9.07812 -20.7969
L9.07812 54.6875
L18.1094 54.6875
L18.1094 46.3906
Q20.9531 51.2656 25.2656 53.625
Q29.5938 56 35.5938 56
Q45.5625 56 51.7812 48.0938
Q58.0156 40.1875 58.0156 27.2969
Q58.0156 14.4062 51.7812 6.48438
Q45.5625 -1.42188 35.5938 -1.42188
Q29.5938 -1.42188 25.2656 0.953125
Q20.9531 3.32812 18.1094 8.20312
M48.6875 27.2969
Q48.6875 37.2031 44.6094 42.8438
Q40.5312 48.4844 33.4062 48.4844
Q26.2656 48.4844 22.1875 42.8438
Q18.1094 37.2031 18.1094 27.2969
Q18.1094 17.3906 22.1875 11.75
Q26.2656 6.10938 33.4062 6.10938
Q40.5312 6.10938 44.6094 11.75
Q48.6875 17.3906 48.6875 27.2969" id="BitstreamVeraSans-Roman-70"/>
      </defs>
      <g transform="translate(483.834834906 1286.033125)rotate(-90.0)scale(0.12 -0.12)">
       <use xlink:href="#BitstreamVeraSans-Roman-4a"/>
       <use x="29.4921875" xlink:href="#BitstreamVeraSans-Roman-6f"/>
       <use x="90.673828125" xlink:href="#BitstreamVeraSans-Roman-75"/>
       <use x="154.052734375" xlink:href="#BitstreamVeraSans-Roman-72"/>
       <use x="193.416015625" xlink:href="#BitstreamVeraSans-Roman-6e"/>
       <use x="256.794921875" xlink:href="#BitstreamVeraSans-Roman-61"/>
       <use x="318.07421875" xlink:href="#BitstreamVeraSans-Roman-6c"/>
       <use x="345.857421875" xlink:href="#BitstreamVeraSans-Roman-20"/>
       <use x="377.64453125" xlink:href="#BitstreamVeraSans-Roman-6f"/>
       <use x="438.826171875" xlink:href="#BitstreamVeraSans-Roman-66"/>
       <use x="474.03125" xlink:href="#BitstreamVeraSans-Roman-20"/>
       <use x="505.818359375" xlink:href="#BitstreamVeraSans-Roman-4f"/>
       <use x="584.529296875" xlink:href="#BitstreamVeraSans-Roman-70"/>
       <use x="648.005859375" xlink:href="#BitstreamVeraSans-Roman-65"/>
       <use x="709.529296875" xlink:href="#BitstreamVeraSans-Roman-6e"/>
       <use x="772.908203125" xlink:href="#BitstreamVeraSans-Roman-20"/>
       <use x="804.6953125" xlink:href="#BitstreamVeraSans-Roman-41"/>
       <use x="873.103515625" xlink:href="#BitstreamVeraSans-Roman-72"/>
       <use x="911.966796875" xlink:href="#BitstreamVeraSans-Roman-63"/>
       <use x="966.947265625" xlink:href="#BitstreamVeraSans-Roman-68"/>
       <use x="1030.32617188" xlink:href="#BitstreamVeraSans-Roman-61"/>
       <use x="1091.60546875" xlink:href="#BitstreamVeraSans-Roman-65"/>
       <use x="1153.12890625" xlink:href="#BitstreamVeraSans-Roman-6f"/>
       <use x="1214.31054688" xlink:href="#BitstreamVeraSans-Roman-6c"/>
       <use x="1242.09375" xlink:href="#BitstreamVeraSans-Roman-6f"/>
       <use x="1303.27539062" xlink:href="#BitstreamVeraSans-Roman-67"/>
       <use x="1366.75195312" xlink:href="#BitstreamVeraSans-Roman-79"/>
       <use x="1425.93164062" xlink:href="#BitstreamVeraSans-Roman-20"/>
       <use x="1457.71875" xlink:href="#BitstreamVeraSans-Roman-44"/>
       <use x="1534.72070312" xlink:href="#BitstreamVeraSans-Roman-61"/>
       <use x="1596.0" xlink:href="#BitstreamVeraSans-Roman-74"/>
       <use x="1635.20898438" xlink:href="#BitstreamVeraSans-Roman-61"/>
      </g>
     </g>
    </g>
    <g id="xtick_7">
     <g id="line2d_21">
      <path clip-path="url(#pd69634e04a)" d="
M542.43 1078.92
L542.43 119.88" style="fill:none;stroke:#000000;stroke-dasharray:1.000000,3.000000;stroke-dashoffset:0.0;stroke-width:0.5;"/>
     </g>
     <g id="line2d_22">
      <g>
       <use style="stroke:#000000;stroke-width:0.5;" x="542.43" xlink:href="#m93b0483c22" y="1078.92"/>
      </g>
     </g>
     <g id="line2d_23">
      <g>
       <use style="stroke:#000000;stroke-width:0.5;" x="542.43" xlink:href="#m741efc42ff" y="119.88"/>
      </g>
     </g>
     <g id="text_7">
      <!-- Journal of Open Psychology Data -->
      <defs>
       <path d="
M19.6719 64.7969
L19.6719 37.4062
L32.0781 37.4062
Q38.9688 37.4062 42.7188 40.9688
Q46.4844 44.5312 46.4844 51.125
Q46.4844 57.6719 42.7188 61.2344
Q38.9688 64.7969 32.0781 64.7969
z

M9.8125 72.9062
L32.0781 72.9062
Q44.3438 72.9062 50.6094 67.3594
Q56.8906 61.8125 56.8906 51.125
Q56.8906 40.3281 50.6094 34.8125
Q44.3438 29.2969 32.0781 29.2969
L19.6719 29.2969
L19.6719 0
L9.8125 0
z
" id="BitstreamVeraSans-Roman-50"/>
      </defs>
      <g transform="translate(545.74125 1278.803125)rotate(-90.0)scale(0.12 -0.12)">
       <use xlink:href="#BitstreamVeraSans-Roman-4a"/>
       <use x="29.4921875" xlink:href="#BitstreamVeraSans-Roman-6f"/>
       <use x="90.673828125" xlink:href="#BitstreamVeraSans-Roman-75"/>
       <use x="154.052734375" xlink:href="#BitstreamVeraSans-Roman-72"/>
       <use x="193.416015625" xlink:href="#BitstreamVeraSans-Roman-6e"/>
       <use x="256.794921875" xlink:href="#BitstreamVeraSans-Roman-61"/>
       <use x="318.07421875" xlink:href="#BitstreamVeraSans-Roman-6c"/>
       <use x="345.857421875" xlink:href="#BitstreamVeraSans-Roman-20"/>
       <use x="377.64453125" xlink:href="#BitstreamVeraSans-Roman-6f"/>
       <use x="438.826171875" xlink:href="#BitstreamVeraSans-Roman-66"/>
       <use x="474.03125" xlink:href="#BitstreamVeraSans-Roman-20"/>
       <use x="505.818359375" xlink:href="#BitstreamVeraSans-Roman-4f"/>
       <use x="584.529296875" xlink:href="#BitstreamVeraSans-Roman-70"/>
       <use x="648.005859375" xlink:href="#BitstreamVeraSans-Roman-65"/>
       <use x="709.529296875" xlink:href="#BitstreamVeraSans-Roman-6e"/>
       <use x="772.908203125" xlink:href="#BitstreamVeraSans-Roman-20"/>
       <use x="804.6953125" xlink:href="#BitstreamVeraSans-Roman-50"/>
       <use x="863.248046875" xlink:href="#BitstreamVeraSans-Roman-73"/>
       <use x="915.34765625" xlink:href="#BitstreamVeraSans-Roman-79"/>
       <use x="974.52734375" xlink:href="#BitstreamVeraSans-Roman-63"/>
       <use x="1029.5078125" xlink:href="#BitstreamVeraSans-Roman-68"/>
       <use x="1092.88671875" xlink:href="#BitstreamVeraSans-Roman-6f"/>
       <use x="1154.06835938" xlink:href="#BitstreamVeraSans-Roman-6c"/>
       <use x="1181.8515625" xlink:href="#BitstreamVeraSans-Roman-6f"/>
       <use x="1243.03320312" xlink:href="#BitstreamVeraSans-Roman-67"/>
       <use x="1306.50976562" xlink:href="#BitstreamVeraSans-Roman-79"/>
       <use x="1365.68945312" xlink:href="#BitstreamVeraSans-Roman-20"/>
       <use x="1397.4765625" xlink:href="#BitstreamVeraSans-Roman-44"/>
       <use x="1474.47851562" xlink:href="#BitstreamVeraSans-Roman-61"/>
       <use x="1535.7578125" xlink:href="#BitstreamVeraSans-Roman-74"/>
       <use x="1574.96679688" xlink:href="#BitstreamVeraSans-Roman-61"/>
      </g>
     </g>
    </g>
    <g id="xtick_8">
     <g id="line2d_24">
      <path clip-path="url(#pd69634e04a)" d="
M604.336 1078.92
L604.336 119.88" style="fill:none;stroke:#000000;stroke-dasharray:1.000000,3.000000;stroke-dashoffset:0.0;stroke-width:0.5;"/>
     </g>
     <g id="line2d_25">
      <g>
       <use style="stroke:#000000;stroke-width:0.5;" x="604.336415094" xlink:href="#m93b0483c22" y="1078.92"/>
      </g>
     </g>
     <g id="line2d_26">
      <g>
       <use style="stroke:#000000;stroke-width:0.5;" x="604.336415094" xlink:href="#m741efc42ff" y="119.88"/>
      </g>
     </g>
     <g id="text_8">
      <!-- GigaScience -->
      <g transform="translate(607.647665094 1155.731875)rotate(-90.0)scale(0.12 -0.12)">
       <use xlink:href="#BitstreamVeraSans-Roman-47"/>
       <use x="77.490234375" xlink:href="#BitstreamVeraSans-Roman-69"/>
       <use x="105.2734375" xlink:href="#BitstreamVeraSans-Roman-67"/>
       <use x="168.75" xlink:href="#BitstreamVeraSans-Roman-61"/>
       <use x="230.029296875" xlink:href="#BitstreamVeraSans-Roman-53"/>
       <use x="293.505859375" xlink:href="#BitstreamVeraSans-Roman-63"/>
       <use x="348.486328125" xlink:href="#BitstreamVeraSans-Roman-69"/>
       <use x="376.26953125" xlink:href="#BitstreamVeraSans-Roman-65"/>
       <use x="437.79296875" xlink:href="#BitstreamVeraSans-Roman-6e"/>
       <use x="501.171875" xlink:href="#BitstreamVeraSans-Roman-63"/>
       <use x="556.15234375" xlink:href="#BitstreamVeraSans-Roman-65"/>
      </g>
     </g>
    </g>
    <g id="xtick_9">
     <g id="line2d_27">
      <path clip-path="url(#pd69634e04a)" d="
M666.243 1078.92
L666.243 119.88" style="fill:none;stroke:#000000;stroke-dasharray:1.000000,3.000000;stroke-dashoffset:0.0;stroke-width:0.5;"/>
     </g>
     <g id="line2d_28">
      <g>
       <use style="stroke:#000000;stroke-width:0.5;" x="666.242830189" xlink:href="#m93b0483c22" y="1078.92"/>
      </g>
     </g>
     <g id="line2d_29">
      <g>
       <use style="stroke:#000000;stroke-width:0.5;" x="666.242830189" xlink:href="#m741efc42ff" y="119.88"/>
      </g>
     </g>
     <g id="text_9">
      <!-- F1000 Research -->
      <defs>
       <path d="
M9.8125 72.9062
L51.7031 72.9062
L51.7031 64.5938
L19.6719 64.5938
L19.6719 43.1094
L48.5781 43.1094
L48.5781 34.8125
L19.6719 34.8125
L19.6719 0
L9.8125 0
z
" id="BitstreamVeraSans-Roman-46"/>
       <path d="
M31.7812 66.4062
Q24.1719 66.4062 20.3281 58.9062
Q16.5 51.4219 16.5 36.375
Q16.5 21.3906 20.3281 13.8906
Q24.1719 6.39062 31.7812 6.39062
Q39.4531 6.39062 43.2812 13.8906
Q47.125 21.3906 47.125 36.375
Q47.125 51.4219 43.2812 58.9062
Q39.4531 66.4062 31.7812 66.4062
M31.7812 74.2188
Q44.0469 74.2188 50.5156 64.5156
Q56.9844 54.8281 56.9844 36.375
Q56.9844 17.9688 50.5156 8.26562
Q44.0469 -1.42188 31.7812 -1.42188
Q19.5312 -1.42188 13.0625 8.26562
Q6.59375 17.9688 6.59375 36.375
Q6.59375 54.8281 13.0625 64.5156
Q19.5312 74.2188 31.7812 74.2188" id="BitstreamVeraSans-Roman-30"/>
       <path d="
M12.4062 8.29688
L28.5156 8.29688
L28.5156 63.9219
L10.9844 60.4062
L10.9844 69.3906
L28.4219 72.9062
L38.2812 72.9062
L38.2812 8.29688
L54.3906 8.29688
L54.3906 0
L12.4062 0
z
" id="BitstreamVeraSans-Roman-31"/>
       <path d="
M44.3906 34.1875
Q47.5625 33.1094 50.5625 29.5938
Q53.5625 26.0781 56.5938 19.9219
L66.6094 0
L56 0
L46.6875 18.7031
Q43.0625 26.0312 39.6719 28.4219
Q36.2812 30.8125 30.4219 30.8125
L19.6719 30.8125
L19.6719 0
L9.8125 0
L9.8125 72.9062
L32.0781 72.9062
Q44.5781 72.9062 50.7344 67.6719
Q56.8906 62.4531 56.8906 51.9062
Q56.8906 45.0156 53.6875 40.4688
Q50.4844 35.9375 44.3906 34.1875
M19.6719 64.7969
L19.6719 38.9219
L32.0781 38.9219
Q39.2031 38.9219 42.8438 42.2188
Q46.4844 45.5156 46.4844 51.9062
Q46.4844 58.2969 42.8438 61.5469
Q39.2031 64.7969 32.0781 64.7969
z
" id="BitstreamVeraSans-Roman-52"/>
      </defs>
      <g transform="translate(669.554080189 1178.194375)rotate(-90.0)scale(0.12 -0.12)">
       <use xlink:href="#BitstreamVeraSans-Roman-46"/>
       <use x="57.51953125" xlink:href="#BitstreamVeraSans-Roman-31"/>
       <use x="121.142578125" xlink:href="#BitstreamVeraSans-Roman-30"/>
       <use x="184.765625" xlink:href="#BitstreamVeraSans-Roman-30"/>
       <use x="248.388671875" xlink:href="#BitstreamVeraSans-Roman-30"/>
       <use x="312.01171875" xlink:href="#BitstreamVeraSans-Roman-20"/>
       <use x="343.798828125" xlink:href="#BitstreamVeraSans-Roman-52"/>
       <use x="408.78125" xlink:href="#BitstreamVeraSans-Roman-65"/>
       <use x="470.3046875" xlink:href="#BitstreamVeraSans-Roman-73"/>
       <use x="522.404296875" xlink:href="#BitstreamVeraSans-Roman-65"/>
       <use x="583.927734375" xlink:href="#BitstreamVeraSans-Roman-61"/>
       <use x="645.20703125" xlink:href="#BitstreamVeraSans-Roman-72"/>
       <use x="684.0703125" xlink:href="#BitstreamVeraSans-Roman-63"/>
       <use x="739.05078125" xlink:href="#BitstreamVeraSans-Roman-68"/>
      </g>
     </g>
    </g>
    <g id="xtick_10">
     <g id="line2d_30">
      <path clip-path="url(#pd69634e04a)" d="
M728.149 1078.92
L728.149 119.88" style="fill:none;stroke:#000000;stroke-dasharray:1.000000,3.000000;stroke-dashoffset:0.0;stroke-width:0.5;"/>
     </g>
     <g id="line2d_31">
      <g>
       <use style="stroke:#000000;stroke-width:0.5;" x="728.149245283" xlink:href="#m93b0483c22" y="1078.92"/>
      </g>
     </g>
     <g id="line2d_32">
      <g>
       <use style="stroke:#000000;stroke-width:0.5;" x="728.149245283" xlink:href="#m741efc42ff" y="119.88"/>
      </g>
     </g>
     <g id="text_10">
      <!-- Open Health Data -->
      <defs>
       <path d="
M9.8125 72.9062
L19.6719 72.9062
L19.6719 43.0156
L55.5156 43.0156
L55.5156 72.9062
L65.375 72.9062
L65.375 0
L55.5156 0
L55.5156 34.7188
L19.6719 34.7188
L19.6719 0
L9.8125 0
z
" id="BitstreamVeraSans-Roman-48"/>
      </defs>
      <g transform="translate(731.460495283 1189.568125)rotate(-90.0)scale(0.12 -0.12)">
       <use xlink:href="#BitstreamVeraSans-Roman-4f"/>
       <use x="78.7109375" xlink:href="#BitstreamVeraSans-Roman-70"/>
       <use x="142.1875" xlink:href="#BitstreamVeraSans-Roman-65"/>
       <use x="203.7109375" xlink:href="#BitstreamVeraSans-Roman-6e"/>
       <use x="267.08984375" xlink:href="#BitstreamVeraSans-Roman-20"/>
       <use x="298.876953125" xlink:href="#BitstreamVeraSans-Roman-48"/>
       <use x="374.072265625" xlink:href="#BitstreamVeraSans-Roman-65"/>
       <use x="435.595703125" xlink:href="#BitstreamVeraSans-Roman-61"/>
       <use x="496.875" xlink:href="#BitstreamVeraSans-Roman-6c"/>
       <use x="524.658203125" xlink:href="#BitstreamVeraSans-Roman-74"/>
       <use x="563.8671875" xlink:href="#BitstreamVeraSans-Roman-68"/>
       <use x="627.24609375" xlink:href="#BitstreamVeraSans-Roman-20"/>
       <use x="659.033203125" xlink:href="#BitstreamVeraSans-Roman-44"/>
       <use x="736.03515625" xlink:href="#BitstreamVeraSans-Roman-61"/>
       <use x="797.314453125" xlink:href="#BitstreamVeraSans-Roman-74"/>
       <use x="836.5234375" xlink:href="#BitstreamVeraSans-Roman-61"/>
      </g>
     </g>
    </g>
    <g id="xtick_11">
     <g id="line2d_33">
      <path clip-path="url(#pd69634e04a)" d="
M790.056 1078.92
L790.056 119.88" style="fill:none;stroke:#000000;stroke-dasharray:1.000000,3.000000;stroke-dashoffset:0.0;stroke-width:0.5;"/>
     </g>
     <g id="line2d_34">
      <g>
       <use style="stroke:#000000;stroke-width:0.5;" x="790.055660377" xlink:href="#m93b0483c22" y="1078.92"/>
      </g>
     </g>
     <g id="line2d_35">
      <g>
       <use style="stroke:#000000;stroke-width:0.5;" x="790.055660377" xlink:href="#m741efc42ff" y="119.88"/>
      </g>
     </g>
     <g id="text_11">
      <!-- Earthquake Spectra -->
      <defs>
       <path d="
M9.07812 75.9844
L18.1094 75.9844
L18.1094 31.1094
L44.9219 54.6875
L56.3906 54.6875
L27.3906 29.1094
L57.625 0
L45.9062 0
L18.1094 26.7031
L18.1094 0
L9.07812 0
z
" id="BitstreamVeraSans-Roman-6b"/>
       <path d="
M14.7969 27.2969
Q14.7969 17.3906 18.875 11.75
Q22.9531 6.10938 30.0781 6.10938
Q37.2031 6.10938 41.2969 11.75
Q45.4062 17.3906 45.4062 27.2969
Q45.4062 37.2031 41.2969 42.8438
Q37.2031 48.4844 30.0781 48.4844
Q22.9531 48.4844 18.875 42.8438
Q14.7969 37.2031 14.7969 27.2969
M45.4062 8.20312
Q42.5781 3.32812 38.25 0.953125
Q33.9375 -1.42188 27.875 -1.42188
Q17.9688 -1.42188 11.7344 6.48438
Q5.51562 14.4062 5.51562 27.2969
Q5.51562 40.1875 11.7344 48.0938
Q17.9688 56 27.875 56
Q33.9375 56 38.25 53.625
Q42.5781 51.2656 45.4062 46.3906
L45.4062 54.6875
L54.3906 54.6875
L54.3906 -20.7969
L45.4062 -20.7969
z
" id="BitstreamVeraSans-Roman-71"/>
      </defs>
      <g transform="translate(793.366910377 1200.506875)rotate(-90.0)scale(0.12 -0.12)">
       <use xlink:href="#BitstreamVeraSans-Roman-45"/>
       <use x="63.18359375" xlink:href="#BitstreamVeraSans-Roman-61"/>
       <use x="124.462890625" xlink:href="#BitstreamVeraSans-Roman-72"/>
       <use x="165.576171875" xlink:href="#BitstreamVeraSans-Roman-74"/>
       <use x="204.78515625" xlink:href="#BitstreamVeraSans-Roman-68"/>
       <use x="268.1640625" xlink:href="#BitstreamVeraSans-Roman-71"/>
       <use x="331.640625" xlink:href="#BitstreamVeraSans-Roman-75"/>
       <use x="395.01953125" xlink:href="#BitstreamVeraSans-Roman-61"/>
       <use x="456.298828125" xlink:href="#BitstreamVeraSans-Roman-6b"/>
       <use x="510.583984375" xlink:href="#BitstreamVeraSans-Roman-65"/>
       <use x="572.107421875" xlink:href="#BitstreamVeraSans-Roman-20"/>
       <use x="603.89453125" xlink:href="#BitstreamVeraSans-Roman-53"/>
       <use x="667.37109375" xlink:href="#BitstreamVeraSans-Roman-70"/>
       <use x="730.84765625" xlink:href="#BitstreamVeraSans-Roman-65"/>
       <use x="792.37109375" xlink:href="#BitstreamVeraSans-Roman-63"/>
       <use x="847.3515625" xlink:href="#BitstreamVeraSans-Roman-74"/>
       <use x="886.560546875" xlink:href="#BitstreamVeraSans-Roman-72"/>
       <use x="927.673828125" xlink:href="#BitstreamVeraSans-Roman-61"/>
      </g>
     </g>
    </g>
    <g id="xtick_12">
     <g id="line2d_36">
      <path clip-path="url(#pd69634e04a)" d="
M851.962 1078.92
L851.962 119.88" style="fill:none;stroke:#000000;stroke-dasharray:1.000000,3.000000;stroke-dashoffset:0.0;stroke-width:0.5;"/>
     </g>
     <g id="line2d_37">
      <g>
       <use style="stroke:#000000;stroke-width:0.5;" x="851.962075472" xlink:href="#m93b0483c22" y="1078.92"/>
      </g>
     </g>
     <g id="line2d_38">
      <g>
       <use style="stroke:#000000;stroke-width:0.5;" x="851.962075472" xlink:href="#m741efc42ff" y="119.88"/>
      </g>
     </g>
     <g id="text_12">
      <!-- Data Science Journal -->
      <g transform="translate(855.273325472 1206.098125)rotate(-90.0)scale(0.12 -0.12)">
       <use xlink:href="#BitstreamVeraSans-Roman-44"/>
       <use x="77.001953125" xlink:href="#BitstreamVeraSans-Roman-61"/>
       <use x="138.28125" xlink:href="#BitstreamVeraSans-Roman-74"/>
       <use x="177.490234375" xlink:href="#BitstreamVeraSans-Roman-61"/>
       <use x="238.76953125" xlink:href="#BitstreamVeraSans-Roman-20"/>
       <use x="270.556640625" xlink:href="#BitstreamVeraSans-Roman-53"/>
       <use x="334.033203125" xlink:href="#BitstreamVeraSans-Roman-63"/>
       <use x="389.013671875" xlink:href="#BitstreamVeraSans-Roman-69"/>
       <use x="416.796875" xlink:href="#BitstreamVeraSans-Roman-65"/>
       <use x="478.3203125" xlink:href="#BitstreamVeraSans-Roman-6e"/>
       <use x="541.69921875" xlink:href="#BitstreamVeraSans-Roman-63"/>
       <use x="596.6796875" xlink:href="#BitstreamVeraSans-Roman-65"/>
       <use x="658.203125" xlink:href="#BitstreamVeraSans-Roman-20"/>
       <use x="689.990234375" xlink:href="#BitstreamVeraSans-Roman-4a"/>
       <use x="719.482421875" xlink:href="#BitstreamVeraSans-Roman-6f"/>
       <use x="780.6640625" xlink:href="#BitstreamVeraSans-Roman-75"/>
       <use x="844.04296875" xlink:href="#BitstreamVeraSans-Roman-72"/>
       <use x="883.40625" xlink:href="#BitstreamVeraSans-Roman-6e"/>
       <use x="946.78515625" xlink:href="#BitstreamVeraSans-Roman-61"/>
       <use x="1008.06445312" xlink:href="#BitstreamVeraSans-Roman-6c"/>
      </g>
     </g>
    </g>
    <g id="xtick_13">
     <g id="line2d_39">
      <path clip-path="url(#pd69634e04a)" d="
M913.868 1078.92
L913.868 119.88" style="fill:none;stroke:#000000;stroke-dasharray:1.000000,3.000000;stroke-dashoffset:0.0;stroke-width:0.5;"/>
     </g>
     <g id="line2d_40">
      <g>
       <use style="stroke:#000000;stroke-width:0.5;" x="913.868490566" xlink:href="#m93b0483c22" y="1078.92"/>
      </g>
     </g>
     <g id="line2d_41">
      <g>
       <use style="stroke:#000000;stroke-width:0.5;" x="913.868490566" xlink:href="#m741efc42ff" y="119.88"/>
      </g>
     </g>
     <g id="text_13">
      <!-- Acta Crystallographica -->
      <defs>
       <path d="
M64.4062 67.2812
L64.4062 56.8906
Q59.4219 61.5312 53.7812 63.8125
Q48.1406 66.1094 41.7969 66.1094
Q29.2969 66.1094 22.6562 58.4688
Q16.0156 50.8281 16.0156 36.375
Q16.0156 21.9688 22.6562 14.3281
Q29.2969 6.6875 41.7969 6.6875
Q48.1406 6.6875 53.7812 8.98438
Q59.4219 11.2812 64.4062 15.9219
L64.4062 5.60938
Q59.2344 2.09375 53.4375 0.328125
Q47.6562 -1.42188 41.2188 -1.42188
Q24.6562 -1.42188 15.125 8.70312
Q5.60938 18.8438 5.60938 36.375
Q5.60938 53.9531 15.125 64.0781
Q24.6562 74.2188 41.2188 74.2188
Q47.75 74.2188 53.5312 72.4844
Q59.3281 70.75 64.4062 67.2812" id="BitstreamVeraSans-Roman-43"/>
      </defs>
      <g transform="translate(917.179740566 1217.4475)rotate(-90.0)scale(0.12 -0.12)">
       <use xlink:href="#BitstreamVeraSans-Roman-41"/>
       <use x="66.658203125" xlink:href="#BitstreamVeraSans-Roman-63"/>
       <use x="121.638671875" xlink:href="#BitstreamVeraSans-Roman-74"/>
       <use x="160.84765625" xlink:href="#BitstreamVeraSans-Roman-61"/>
       <use x="222.126953125" xlink:href="#BitstreamVeraSans-Roman-20"/>
       <use x="253.9140625" xlink:href="#BitstreamVeraSans-Roman-43"/>
       <use x="323.73828125" xlink:href="#BitstreamVeraSans-Roman-72"/>
       <use x="364.8515625" xlink:href="#BitstreamVeraSans-Roman-79"/>
       <use x="424.03125" xlink:href="#BitstreamVeraSans-Roman-73"/>
       <use x="476.130859375" xlink:href="#BitstreamVeraSans-Roman-74"/>
       <use x="515.33984375" xlink:href="#BitstreamVeraSans-Roman-61"/>
       <use x="576.619140625" xlink:href="#BitstreamVeraSans-Roman-6c"/>
       <use x="604.40234375" xlink:href="#BitstreamVeraSans-Roman-6c"/>
       <use x="632.185546875" xlink:href="#BitstreamVeraSans-Roman-6f"/>
       <use x="693.3671875" xlink:href="#BitstreamVeraSans-Roman-67"/>
       <use x="756.84375" xlink:href="#BitstreamVeraSans-Roman-72"/>
       <use x="797.95703125" xlink:href="#BitstreamVeraSans-Roman-61"/>
       <use x="859.236328125" xlink:href="#BitstreamVeraSans-Roman-70"/>
       <use x="922.712890625" xlink:href="#BitstreamVeraSans-Roman-68"/>
       <use x="986.091796875" xlink:href="#BitstreamVeraSans-Roman-69"/>
       <use x="1013.875" xlink:href="#BitstreamVeraSans-Roman-63"/>
       <use x="1068.85546875" xlink:href="#BitstreamVeraSans-Roman-61"/>
      </g>
     </g>
    </g>
   </g>
   <g id="matplotlib.axis_2">
    <g id="ytick_1">
     <g id="line2d_42">
      <path clip-path="url(#pd69634e04a)" d="
M132.3 1078.92
L952.56 1078.92" style="fill:none;stroke:#000000;stroke-dasharray:1.000000,3.000000;stroke-dashoffset:0.0;stroke-width:0.5;"/>
     </g>
     <g id="line2d_43">
      <defs>
       <path d="
M0 0
L4 0" id="m728421d6d4" style="stroke:#000000;stroke-width:0.5;"/>
      </defs>
      <g>
       <use style="stroke:#000000;stroke-width:0.5;" x="132.3" xlink:href="#m728421d6d4" y="1078.92"/>
      </g>
     </g>
     <g id="line2d_44">
      <defs>
       <path d="
M0 0
L-4 0" id="mcb0005524f" style="stroke:#000000;stroke-width:0.5;"/>
      </defs>
      <g>
       <use style="stroke:#000000;stroke-width:0.5;" x="952.56" xlink:href="#mcb0005524f" y="1078.92"/>
      </g>
     </g>
     <g id="text_14">
      <!-- 0 -->
      <g transform="translate(122.253125 1082.23125)scale(0.12 -0.12)">
       <use xlink:href="#BitstreamVeraSans-Roman-30"/>
      </g>
     </g>
    </g>
    <g id="ytick_2">
     <g id="line2d_45">
      <path clip-path="url(#pd69634e04a)" d="
M132.3 959.04
L952.56 959.04" style="fill:none;stroke:#000000;stroke-dasharray:1.000000,3.000000;stroke-dashoffset:0.0;stroke-width:0.5;"/>
     </g>
     <g id="line2d_46">
      <g>
       <use style="stroke:#000000;stroke-width:0.5;" x="132.3" xlink:href="#m728421d6d4" y="959.04"/>
      </g>
     </g>
     <g id="line2d_47">
      <g>
       <use style="stroke:#000000;stroke-width:0.5;" x="952.56" xlink:href="#mcb0005524f" y="959.04"/>
      </g>
     </g>
     <g id="text_15">
      <!-- 2 -->
      <defs>
       <path d="
M19.1875 8.29688
L53.6094 8.29688
L53.6094 0
L7.32812 0
L7.32812 8.29688
Q12.9375 14.1094 22.625 23.8906
Q32.3281 33.6875 34.8125 36.5312
Q39.5469 41.8438 41.4219 45.5312
Q43.3125 49.2188 43.3125 52.7812
Q43.3125 58.5938 39.2344 62.25
Q35.1562 65.9219 28.6094 65.9219
Q23.9688 65.9219 18.8125 64.3125
Q13.6719 62.7031 7.8125 59.4219
L7.8125 69.3906
Q13.7656 71.7812 18.9375 73
Q24.125 74.2188 28.4219 74.2188
Q39.75 74.2188 46.4844 68.5469
Q53.2188 62.8906 53.2188 53.4219
Q53.2188 48.9219 51.5312 44.8906
Q49.8594 40.875 45.4062 35.4062
Q44.1875 33.9844 37.6406 27.2188
Q31.1094 20.4531 19.1875 8.29688" id="BitstreamVeraSans-Roman-32"/>
      </defs>
      <g transform="translate(122.74625 962.35125)scale(0.12 -0.12)">
       <use xlink:href="#BitstreamVeraSans-Roman-32"/>
      </g>
     </g>
    </g>
    <g id="ytick_3">
     <g id="line2d_48">
      <path clip-path="url(#pd69634e04a)" d="
M132.3 839.16
L952.56 839.16" style="fill:none;stroke:#000000;stroke-dasharray:1.000000,3.000000;stroke-dashoffset:0.0;stroke-width:0.5;"/>
     </g>
     <g id="line2d_49">
      <g>
       <use style="stroke:#000000;stroke-width:0.5;" x="132.3" xlink:href="#m728421d6d4" y="839.16"/>
      </g>
     </g>
     <g id="line2d_50">
      <g>
       <use style="stroke:#000000;stroke-width:0.5;" x="952.56" xlink:href="#mcb0005524f" y="839.16"/>
      </g>
     </g>
     <g id="text_16">
      <!-- 4 -->
      <defs>
       <path d="
M37.7969 64.3125
L12.8906 25.3906
L37.7969 25.3906
z

M35.2031 72.9062
L47.6094 72.9062
L47.6094 25.3906
L58.0156 25.3906
L58.0156 17.1875
L47.6094 17.1875
L47.6094 0
L37.7969 0
L37.7969 17.1875
L4.89062 17.1875
L4.89062 26.7031
z
" id="BitstreamVeraSans-Roman-34"/>
      </defs>
      <g transform="translate(121.925 842.47125)scale(0.12 -0.12)">
       <use xlink:href="#BitstreamVeraSans-Roman-34"/>
      </g>
     </g>
    </g>
    <g id="ytick_4">
     <g id="line2d_51">
      <path clip-path="url(#pd69634e04a)" d="
M132.3 719.28
L952.56 719.28" style="fill:none;stroke:#000000;stroke-dasharray:1.000000,3.000000;stroke-dashoffset:0.0;stroke-width:0.5;"/>
     </g>
     <g id="line2d_52">
      <g>
       <use style="stroke:#000000;stroke-width:0.5;" x="132.3" xlink:href="#m728421d6d4" y="719.28"/>
      </g>
     </g>
     <g id="line2d_53">
      <g>
       <use style="stroke:#000000;stroke-width:0.5;" x="952.56" xlink:href="#mcb0005524f" y="719.28"/>
      </g>
     </g>
     <g id="text_17">
      <!-- 6 -->
      <defs>
       <path d="
M33.0156 40.375
Q26.375 40.375 22.4844 35.8281
Q18.6094 31.2969 18.6094 23.3906
Q18.6094 15.5312 22.4844 10.9531
Q26.375 6.39062 33.0156 6.39062
Q39.6562 6.39062 43.5312 10.9531
Q47.4062 15.5312 47.4062 23.3906
Q47.4062 31.2969 43.5312 35.8281
Q39.6562 40.375 33.0156 40.375
M52.5938 71.2969
L52.5938 62.3125
Q48.875 64.0625 45.0938 64.9844
Q41.3125 65.9219 37.5938 65.9219
Q27.8281 65.9219 22.6719 59.3281
Q17.5312 52.7344 16.7969 39.4062
Q19.6719 43.6562 24.0156 45.9219
Q28.375 48.1875 33.5938 48.1875
Q44.5781 48.1875 50.9531 41.5156
Q57.3281 34.8594 57.3281 23.3906
Q57.3281 12.1562 50.6875 5.35938
Q44.0469 -1.42188 33.0156 -1.42188
Q20.3594 -1.42188 13.6719 8.26562
Q6.98438 17.9688 6.98438 36.375
Q6.98438 53.6562 15.1875 63.9375
Q23.3906 74.2188 37.2031 74.2188
Q40.9219 74.2188 44.7031 73.4844
Q48.4844 72.75 52.5938 71.2969" id="BitstreamVeraSans-Roman-36"/>
      </defs>
      <g transform="translate(122.25875 722.59125)scale(0.12 -0.12)">
       <use xlink:href="#BitstreamVeraSans-Roman-36"/>
      </g>
     </g>
    </g>
    <g id="ytick_5">
     <g id="line2d_54">
      <path clip-path="url(#pd69634e04a)" d="
M132.3 599.4
L952.56 599.4" style="fill:none;stroke:#000000;stroke-dasharray:1.000000,3.000000;stroke-dashoffset:0.0;stroke-width:0.5;"/>
     </g>
     <g id="line2d_55">
      <g>
       <use style="stroke:#000000;stroke-width:0.5;" x="132.3" xlink:href="#m728421d6d4" y="599.4"/>
      </g>
     </g>
     <g id="line2d_56">
      <g>
       <use style="stroke:#000000;stroke-width:0.5;" x="952.56" xlink:href="#mcb0005524f" y="599.4"/>
      </g>
     </g>
     <g id="text_18">
      <!-- 8 -->
      <defs>
       <path d="
M31.7812 34.625
Q24.75 34.625 20.7188 30.8594
Q16.7031 27.0938 16.7031 20.5156
Q16.7031 13.9219 20.7188 10.1562
Q24.75 6.39062 31.7812 6.39062
Q38.8125 6.39062 42.8594 10.1719
Q46.9219 13.9688 46.9219 20.5156
Q46.9219 27.0938 42.8906 30.8594
Q38.875 34.625 31.7812 34.625
M21.9219 38.8125
Q15.5781 40.375 12.0312 44.7188
Q8.5 49.0781 8.5 55.3281
Q8.5 64.0625 14.7188 69.1406
Q20.9531 74.2188 31.7812 74.2188
Q42.6719 74.2188 48.875 69.1406
Q55.0781 64.0625 55.0781 55.3281
Q55.0781 49.0781 51.5312 44.7188
Q48 40.375 41.7031 38.8125
Q48.8281 37.1562 52.7969 32.3125
Q56.7812 27.4844 56.7812 20.5156
Q56.7812 9.90625 50.3125 4.23438
Q43.8438 -1.42188 31.7812 -1.42188
Q19.7344 -1.42188 13.25 4.23438
Q6.78125 9.90625 6.78125 20.5156
Q6.78125 27.4844 10.7812 32.3125
Q14.7969 37.1562 21.9219 38.8125
M18.3125 54.3906
Q18.3125 48.7344 21.8438 45.5625
Q25.3906 42.3906 31.7812 42.3906
Q38.1406 42.3906 41.7188 45.5625
Q45.3125 48.7344 45.3125 54.3906
Q45.3125 60.0625 41.7188 63.2344
Q38.1406 66.4062 31.7812 66.4062
Q25.3906 66.4062 21.8438 63.2344
Q18.3125 60.0625 18.3125 54.3906" id="BitstreamVeraSans-Roman-38"/>
      </defs>
      <g transform="translate(122.3 602.71125)scale(0.12 -0.12)">
       <use xlink:href="#BitstreamVeraSans-Roman-38"/>
      </g>
     </g>
    </g>
    <g id="ytick_6">
     <g id="line2d_57">
      <path clip-path="url(#pd69634e04a)" d="
M132.3 479.52
L952.56 479.52" style="fill:none;stroke:#000000;stroke-dasharray:1.000000,3.000000;stroke-dashoffset:0.0;stroke-width:0.5;"/>
     </g>
     <g id="line2d_58">
      <g>
       <use style="stroke:#000000;stroke-width:0.5;" x="132.3" xlink:href="#m728421d6d4" y="479.52"/>
      </g>
     </g>
     <g id="line2d_59">
      <g>
       <use style="stroke:#000000;stroke-width:0.5;" x="952.56" xlink:href="#mcb0005524f" y="479.52"/>
      </g>
     </g>
     <g id="text_19">
      <!-- 10 -->
      <g transform="translate(115.145 482.83125)scale(0.12 -0.12)">
       <use xlink:href="#BitstreamVeraSans-Roman-31"/>
       <use x="63.623046875" xlink:href="#BitstreamVeraSans-Roman-30"/>
      </g>
     </g>
    </g>
    <g id="ytick_7">
     <g id="line2d_60">
      <path clip-path="url(#pd69634e04a)" d="
M132.3 359.64
L952.56 359.64" style="fill:none;stroke:#000000;stroke-dasharray:1.000000,3.000000;stroke-dashoffset:0.0;stroke-width:0.5;"/>
     </g>
     <g id="line2d_61">
      <g>
       <use style="stroke:#000000;stroke-width:0.5;" x="132.3" xlink:href="#m728421d6d4" y="359.64"/>
      </g>
     </g>
     <g id="line2d_62">
      <g>
       <use style="stroke:#000000;stroke-width:0.5;" x="952.56" xlink:href="#mcb0005524f" y="359.64"/>
      </g>
     </g>
     <g id="text_20">
      <!-- 12 -->
      <g transform="translate(115.55 362.95125)scale(0.12 -0.12)">
       <use xlink:href="#BitstreamVeraSans-Roman-31"/>
       <use x="63.623046875" xlink:href="#BitstreamVeraSans-Roman-32"/>
      </g>
     </g>
    </g>
    <g id="ytick_8">
     <g id="line2d_63">
      <path clip-path="url(#pd69634e04a)" d="
M132.3 239.76
L952.56 239.76" style="fill:none;stroke:#000000;stroke-dasharray:1.000000,3.000000;stroke-dashoffset:0.0;stroke-width:0.5;"/>
     </g>
     <g id="line2d_64">
      <g>
       <use style="stroke:#000000;stroke-width:0.5;" x="132.3" xlink:href="#m728421d6d4" y="239.76"/>
      </g>
     </g>
     <g id="line2d_65">
      <g>
       <use style="stroke:#000000;stroke-width:0.5;" x="952.56" xlink:href="#mcb0005524f" y="239.76"/>
      </g>
     </g>
     <g id="text_21">
      <!-- 14 -->
      <g transform="translate(115.02125 243.07125)scale(0.12 -0.12)">
       <use xlink:href="#BitstreamVeraSans-Roman-31"/>
       <use x="63.623046875" xlink:href="#BitstreamVeraSans-Roman-34"/>
      </g>
     </g>
    </g>
    <g id="ytick_9">
     <g id="line2d_66">
      <path clip-path="url(#pd69634e04a)" d="
M132.3 119.88
L952.56 119.88" style="fill:none;stroke:#000000;stroke-dasharray:1.000000,3.000000;stroke-dashoffset:0.0;stroke-width:0.5;"/>
     </g>
     <g id="line2d_67">
      <g>
       <use style="stroke:#000000;stroke-width:0.5;" x="132.3" xlink:href="#m728421d6d4" y="119.88"/>
      </g>
     </g>
     <g id="line2d_68">
      <g>
       <use style="stroke:#000000;stroke-width:0.5;" x="952.56" xlink:href="#mcb0005524f" y="119.88"/>
      </g>
     </g>
     <g id="text_22">
      <!-- 16 -->
      <g transform="translate(115.10375 123.19125)scale(0.12 -0.12)">
       <use xlink:href="#BitstreamVeraSans-Roman-31"/>
       <use x="63.623046875" xlink:href="#BitstreamVeraSans-Roman-36"/>
      </g>
     </g>
    </g>
   </g>
   <g id="patch_39">
    <path d="
M132.3 119.88
L952.56 119.88" style="fill:none;stroke:#000000;"/>
   </g>
   <g id="patch_40">
    <path d="
M952.56 1078.92
L952.56 119.88" style="fill:none;stroke:#000000;"/>
   </g>
   <g id="patch_41">
    <path d="
M132.3 1078.92
L952.56 1078.92" style="fill:none;stroke:#000000;"/>
   </g>
   <g id="patch_42">
    <path d="
M132.3 1078.92
L132.3 119.88" style="fill:none;stroke:#000000;"/>
   </g>
  </g>
 </g>
 <defs>
  <clipPath id="pd69634e04a">
   <rect height="959.04" width="820.26" x="132.3" y="119.88"/>
  </clipPath>
 </defs>
</svg>
